<svg xmlns="http://www.w3.org/2000/svg" viewBox="0 0 120 120" fill="none">
  <!-- Top swirl band -->
  <path d="M20 28 C30 10, 80 8, 100 26 C88 18, 42 16, 28 32 C24 36, 18 40, 16 48 C12 38, 14 32, 20 28Z" fill="#E30613"/>
  <path d="M20 28 C30 10, 80 8, 100 26 C96 30, 80 24, 60 26 C44 28, 30 36, 24 44 C20 40, 16 36, 20 28Z" fill="#C00010"/>
  <path d="M24 44 C30 36, 44 28, 60 26 C80 24, 96 30, 100 26 C104 34, 100 46, 90 54 C76 42, 52 40, 36 50 C30 54, 24 58, 22 62 C20 54, 20 50, 24 44Z" fill="#E30613"/>

  <!-- Middle negative space + lower band -->
  <path d="M22 62 C24 58, 30 54, 36 50 C52 40, 76 42, 90 54 C94 58, 96 64, 94 70 C80 58, 54 56, 38 66 C32 70, 26 76, 24 82 C20 74, 20 68, 22 62Z" fill="#C00010"/>

  <!-- Bottom swirl band -->
  <path d="M24 82 C26 76, 32 70, 38 66 C54 56, 80 58, 94 70 C98 76, 98 84, 92 92 C82 80, 58 76, 42 86 C36 90, 30 96, 28 102 C24 96, 22 88, 24 82Z" fill="#E30613"/>
  <path d="M28 102 C30 96, 36 90, 42 86 C58 76, 82 80, 92 92 C82 104, 58 110, 36 106 C32 104, 28 102, 28 102Z" fill="#C00010"/>
  <path d="M92 92 C96 96, 98 100, 96 106 C88 114, 70 118, 50 116 C36 114, 28 108, 28 102 C36 106, 58 110, 80 104 C86 102, 90 98, 92 92Z" fill="#E30613"/>
</svg>
